<svg width="70" height="80" viewBox="0 0 70 80" fill="none" xmlns="http://www.w3.org/2000/svg">
<g clip-path="url(#clip0_561_482)">
<path d="M41.4535 0H7.84877C3.88225 0 0.666748 3.24449 0.666748 7.24678V67.611C0.666748 71.6133 3.88225 74.8578 7.84877 74.8578H41.4535C45.4201 74.8578 48.6356 71.6133 48.6356 67.611V7.24678C48.6356 3.24449 45.4201 0 41.4535 0Z" fill="#323333"/>
<path d="M31.4848 10.0244H17.8175C17.1166 10.0244 16.5508 9.45356 16.5508 8.74635C16.5508 8.03914 17.1166 7.46826 17.8175 7.46826H31.4848C32.1857 7.46826 32.7515 8.03914 32.7515 8.74635C32.7515 9.45356 32.1857 10.0244 31.4848 10.0244Z" fill="white"/>
<path opacity="0.1" d="M24.6533 52.3421C34.305 52.3421 42.1292 44.4474 42.1292 34.7087C42.1292 24.9701 34.305 17.0753 24.6533 17.0753C15.0017 17.0753 7.17749 24.9701 7.17749 34.7087C7.17749 44.4474 15.0017 52.3421 24.6533 52.3421Z" fill="white"/>
<path d="M28.5968 34.2698C29.4877 33.2985 30.0408 32.0034 30.0408 30.5762C30.0408 27.5726 27.6299 25.14 24.6533 25.14C21.6766 25.14 19.2657 27.5726 19.2657 30.5762C19.2657 32.0034 19.8146 33.2985 20.7097 34.2698C17.2052 35.8078 14.7563 39.3311 14.7563 43.4295H34.5544C34.5544 39.3268 32.1055 35.8078 28.6011 34.2698H28.5968Z" fill="white"/>
<path d="M43.455 46.1732C46.2206 41.342 53.1281 41.342 55.8937 46.1732L62.4635 57.6505L69.0333 69.1277C71.7989 73.9589 68.3409 79.9958 62.8139 79.9958H36.5432C31.0163 79.9958 27.5583 73.9589 30.3238 69.1277L36.8936 57.6505L43.4634 46.1732H43.455Z" fill="#EF8018"/>
<path d="M46.858 56.2957C46.9044 54.7449 48.1669 53.6586 49.9782 53.6586C51.7896 53.6586 53.052 54.7449 53.0985 56.2957C53.1914 59.5122 52.938 62.4518 52.5918 65.4341C52.4525 66.8442 51.6291 67.7943 49.9782 67.7943C48.3273 67.7943 47.4998 66.8442 47.3393 65.4341C46.9973 62.4476 46.744 59.5122 46.858 56.2957ZM49.9782 68.8593C51.836 68.8593 53.0267 70.0863 53.0267 72.029C53.0267 73.6011 51.7431 74.7812 49.9782 74.7812C48.2133 74.7812 46.9298 73.6011 46.9298 72.029C46.9298 70.0863 48.1669 68.8593 49.9782 68.8593Z" fill="white"/>
</g>
<defs>
<clipPath id="clip0_561_482">
<rect width="69.3333" height="80" fill="white" transform="translate(0.666748)"/>
</clipPath>
</defs>
</svg>
