<svg width="80" height="60" viewBox="0 0 80 60" fill="none" xmlns="http://www.w3.org/2000/svg">
<g clip-path="url(#clip0_564_39)">
<path d="M60.8528 9.36557H29.0028L25.9391 3.45148C24.8382 1.32867 22.6813 0 20.3304 0H11.7102C8.20237 0 5.36255 2.9055 5.36255 6.49443V42.9373C5.36255 46.5224 8.20237 49.4318 11.7102 49.4318H60.8528C64.3569 49.4318 67.2004 46.5262 67.2004 42.9373V15.86C67.2004 12.2749 64.3606 9.36557 60.8528 9.36557Z" fill="#423F3F"/>
<path d="M55.4902 14.852H23.6403L20.5765 8.93793C19.4757 6.81512 17.3188 5.48645 14.9678 5.48645H6.34761C2.83982 5.48645 0 8.39195 0 11.9771V48.42C0 52.0051 2.83982 54.9144 6.34761 54.9144H55.4902C58.9943 54.9144 61.8379 52.0089 61.8379 48.42V21.3465C61.8379 17.7613 58.998 14.852 55.4902 14.852Z" fill="#323333"/>
<path d="M36.761 34.9004C37.8283 33.7245 38.485 32.1553 38.485 30.4257C38.485 26.7871 35.6004 23.8358 32.0441 23.8358C28.4878 23.8358 25.6032 26.7871 25.6032 30.4257C25.6032 32.1553 26.26 33.7245 27.3273 34.9004C23.1403 36.7636 20.2109 41.0321 20.2109 46.0032H43.8736C43.8736 41.0321 40.9442 36.7636 36.7573 34.9004H36.761Z" fill="white"/>
<path d="M56.539 29.6889C58.9832 25.3592 65.0883 25.3592 67.5325 29.6889L73.3391 39.9746L79.1456 50.2603C81.5898 54.5899 78.5336 60 73.6488 60H50.4302C45.5454 60 42.4892 54.5899 44.9334 50.2603L50.7399 39.9746L56.5464 29.6889H56.539Z" fill="#EF8018"/>
<path d="M59.5467 38.7567C59.5877 37.3669 60.7035 36.3933 62.3044 36.3933C63.9053 36.3933 65.0211 37.3669 65.0621 38.7567C65.1442 41.6393 64.9203 44.2737 64.6143 46.9463C64.4912 48.21 63.7635 49.0615 62.3044 49.0615C60.8453 49.0615 60.1139 48.21 59.9721 46.9463C59.6698 44.2699 59.4459 41.6393 59.5467 38.7567ZM62.3044 50.016C63.9463 50.016 64.9987 51.1156 64.9987 52.8566C64.9987 54.2654 63.8642 55.323 62.3044 55.323C60.7446 55.323 59.6101 54.2654 59.6101 52.8566C59.6101 51.1156 60.7035 50.016 62.3044 50.016Z" fill="white"/>
</g>
<defs>
<clipPath id="clip0_564_39">
<rect width="80" height="60" fill="white"/>
</clipPath>
</defs>
</svg>
