<svg width="80" height="70" viewBox="0 0 80 70" fill="none" xmlns="http://www.w3.org/2000/svg">
<g clip-path="url(#clip0_563_21)">
<path d="M19.4134 18.1194C18.4293 18.1194 17.6323 17.3203 17.6323 16.3338V1.7856C17.6323 0.799056 18.4293 0 19.4134 0C20.3974 0 21.1944 0.799056 21.1944 1.7856V16.3338C21.1944 17.3203 20.3974 18.1194 19.4134 18.1194Z" fill="#323333"/>
<path d="M58.9704 55.3313V30.6096L46.6411 42.9704L58.9704 55.3313Z" fill="#DEE2E9"/>
<path d="M0 28.1991V56.2286C0 56.7017 0.0489787 57.1571 0.129126 57.6079L14.7292 42.9705L0 28.1991Z" fill="#DEE2E9"/>
<path d="M7.57391 63.8219H51.3965C55.5775 63.8219 58.9704 60.4248 58.9704 56.2286V55.3269L46.6411 42.9661L36.0439 53.5904C33.0873 56.5545 28.2919 56.5545 25.3354 53.5904L14.7382 42.9661L0.12915 57.608C0.774779 61.1435 3.86044 63.8219 7.56946 63.8219H7.57391Z" fill="#C8D3E3"/>
<path d="M51.3964 16.7668H7.57388C3.38843 16.7668 0 20.1639 0 24.3601V28.1992L14.7337 42.9705L25.3309 53.5949C28.2874 56.559 33.0829 56.559 36.0394 53.5949L46.6366 42.9705L58.9659 30.6097V24.3601C58.9659 20.1684 55.5774 16.7668 51.392 16.7668H51.3964Z" fill="#E3ECF3"/>
<path d="M31.471 33.3059C30.487 33.3059 29.6899 32.5068 29.6899 31.5203C29.6899 30.5338 30.487 29.7347 31.471 29.7347C36.5692 29.7347 40.719 25.5742 40.719 20.463V17.1909L39.3476 18.5658C38.653 19.2622 37.5265 19.2622 36.8275 18.5658C36.1329 17.8694 36.1329 16.74 36.8275 16.0391L44.2811 8.56641V20.4585C44.2811 27.5384 38.5328 33.3014 31.471 33.3014V33.3059Z" fill="#323333"/>
<path d="M64.1176 70C72.8892 70 80 62.871 80 54.0769C80 45.2828 72.8892 38.1538 64.1176 38.1538C55.3459 38.1538 48.2351 45.2828 48.2351 54.0769C48.2351 62.871 55.3459 70 64.1176 70Z" fill="#EF8018"/>
<path d="M71.1037 62.8665C70.6496 62.8665 70.1909 62.6924 69.8436 62.3442L55.8669 48.3317C55.1723 47.6354 55.1723 46.5015 55.8669 45.8051C56.5615 45.1087 57.6925 45.1087 58.3871 45.8051L72.3638 59.8176C73.0584 60.514 73.0584 61.6479 72.3638 62.3442C72.0165 62.6924 71.5579 62.8665 71.1037 62.8665Z" fill="white"/>
<path d="M57.1314 62.8665C56.6772 62.8665 56.2186 62.6924 55.8713 62.3442C55.1767 61.6479 55.1767 60.5185 55.8713 59.8176L69.848 45.8051C70.5426 45.1087 71.6691 45.1087 72.3682 45.8051C73.0628 46.5015 73.0628 47.6309 72.3682 48.3317L58.3915 62.3442C58.0442 62.6924 57.59 62.8665 57.1314 62.8665Z" fill="white"/>
</g>
<defs>
<clipPath id="clip0_563_21">
<rect width="80" height="70" fill="white"/>
</clipPath>
</defs>
</svg>
