<svg width="74" height="80" viewBox="0 0 74 80" fill="none" xmlns="http://www.w3.org/2000/svg">
<path d="M31.9999 68.1571C47.5506 68.1571 60.1569 55.5507 60.1569 40C60.1569 24.4493 47.5506 11.8429 31.9999 11.8429C16.4491 11.8429 3.84277 24.4493 3.84277 40C3.84277 55.5507 16.4491 68.1571 31.9999 68.1571Z" fill="#EEF1FB"/>
<path d="M32 71.9962C14.3533 71.9962 0 57.6428 0 40C0 22.3572 14.3533 8 32 8C49.6467 8 64 22.3533 64 40C64 57.6467 49.6467 72 32 72V71.9962ZM32 15.6858C18.5959 15.6858 7.68584 26.5921 7.68584 40C7.68584 53.408 18.592 64.3142 32 64.3142C45.4079 64.3142 56.3142 53.408 56.3142 40C56.3142 26.5921 45.4079 15.6858 32 15.6858Z" fill="#323333"/>
<path d="M66.2665 79.7755C65.3131 79.7755 64.3555 79.4107 63.6301 78.6811L51.0944 66.1454C49.6352 64.6904 49.6352 62.3275 51.0944 60.8683C52.5494 59.4133 54.9123 59.4092 56.3715 60.8683L68.9072 73.404C70.3622 74.8591 70.3663 77.2219 68.9072 78.6811C68.1776 79.4107 67.2241 79.7755 66.2707 79.7755H66.2665Z" fill="#323333"/>
<path d="M38.1827 37.98C39.3556 36.7067 40.0775 35.0077 40.0775 33.1342C40.0775 29.1942 36.9087 26 33 26C29.0913 26 25.9225 29.1942 25.9225 33.1342C25.9225 35.0077 26.6444 36.7067 27.8173 37.98C23.2157 39.9991 20 44.6194 20 50H46C46 44.6194 42.7807 39.9991 38.1827 37.98Z" fill="#42403F"/>
<path d="M55 36C64.9411 36 73 27.9411 73 18C73 8.05887 64.9411 0 55 0C45.0589 0 37 8.05887 37 18C37 27.9411 45.0589 36 55 36Z" fill="#EF8018"/>
<path d="M52.2916 10.315C52.3369 8.82167 53.5669 7.77551 55.3318 7.77551C57.0966 7.77551 58.3266 8.82167 58.3719 10.315C58.4624 13.4124 58.2156 16.2432 57.8782 19.115C57.7425 20.4729 56.9403 21.3878 55.3318 21.3878C53.7232 21.3878 52.9169 20.4729 52.7606 19.115C52.4274 16.2391 52.1805 13.4124 52.2916 10.315ZM55.3318 22.4135C57.1419 22.4135 58.302 23.595 58.302 25.4658C58.302 26.9796 57.0513 28.116 55.3318 28.116C53.6122 28.116 52.3616 26.9796 52.3616 25.4658C52.3616 23.595 53.5669 22.4135 55.3318 22.4135Z" fill="white"/>
</svg>
