<svg width="259" height="48" viewBox="0 0 259 48" fill="none" xmlns="http://www.w3.org/2000/svg">
<g clip-path="url(#clip0_5460_2795)">
<path d="M79.6386 40.7467C79.6386 40.7467 79.2663 40.2106 78.6905 40.0517C78.2289 39.9227 77.519 39.8631 76.9829 40.5034C76.9829 40.5034 74.1436 43.7944 67.2042 43.9384H65.6456C58.7062 43.7994 55.8669 40.5034 55.8669 40.5034C55.3358 39.8631 54.6309 39.9326 54.1693 40.0517C53.5836 40.2106 53.2212 40.7467 53.2212 40.7467C52.978 41.0296 52.839 41.4118 52.7943 41.6302C52.3774 43.6306 53.9161 44.5688 53.9161 44.5688C53.9161 44.5688 58.5126 47.8598 65.6655 48.0037H67.1794C74.3323 47.8548 78.9188 44.5688 78.9188 44.5688C78.9188 44.5688 80.4874 43.6306 80.0704 41.6302C80.0257 41.4168 79.8868 41.0296 79.6435 40.7467H79.6386Z" fill="#FF8400"/>
<path d="M17.0308 32.8635C18.793 31.2701 19.6964 28.9223 19.6964 25.8844C19.6964 23.2784 18.6639 21.0993 16.6337 19.4315C14.7673 17.848 12.5187 17.0488 9.95739 17.0488H2.89886C1.98056 17.0488 1.24592 17.3417 0.714788 17.9125L0.685005 17.9423C0.228335 18.4883 0 19.1882 0 20.0172V46.792H5.50486V36.3977L18.5994 46.8614L20.7636 41.992L11.7295 35.0228C13.9135 34.8341 15.6956 34.1144 17.0308 32.8734V32.8635ZM6.15512 30.466C5.83744 30.466 5.65378 30.4461 5.54457 30.4213C5.52472 30.3072 5.50982 30.1235 5.50982 29.8108V22.8118C5.50982 22.514 5.52968 22.3154 5.54457 22.1913C5.6637 22.1715 5.86225 22.1516 6.15512 22.1516H9.7787C11.114 22.1516 12.1564 22.5438 12.9804 23.3429L13.0002 23.3628C13.7994 24.1024 14.1866 25.0058 14.1866 26.1376C14.1866 27.7061 13.854 28.8279 13.1739 29.4881C12.5435 30.1334 11.4118 30.466 9.82337 30.466H6.15512Z" fill="#FF8400"/>
<path d="M40.227 19.5817C39.8646 18.7577 39.4824 18.1471 39.0655 17.7252L39.0357 17.7053C38.4351 17.1345 37.6905 16.8516 36.8268 16.8516C35.9184 16.8516 35.1391 17.1345 34.5137 17.6855L34.4938 17.7053C34.0123 18.157 33.6301 18.7825 33.3223 19.6462L22.7842 46.7982H28.5769L30.5525 41.2735L36.7821 25.6425L42.9571 41.2735L44.9327 46.7982H50.7254L40.232 19.6164L40.2121 19.5767L40.227 19.5817Z" fill="#FF8400"/>
<path d="M102.548 17.0543V36.2494L89.7512 19.154C89.1854 18.2903 88.7188 17.7443 88.282 17.4167C87.7806 17.0295 87.1701 16.8359 86.4801 16.8359C85.3484 16.8359 84.7527 17.3224 84.4449 17.7344C84.0627 18.2506 83.8691 18.9803 83.8691 19.978V46.7925H89.374V27.1904L102.131 44.3106C102.672 45.1098 103.104 45.626 103.506 45.9139C104.037 46.3259 104.687 46.5344 105.427 46.5344C106.464 46.5344 107.08 46.038 107.403 45.6161C107.795 45.1197 107.988 44.4248 107.988 43.4866V17.0494H102.538L102.548 17.0543Z" fill="#FF8400"/>
<path d="M83.2025 15.6103C82.721 12.1852 79.7229 10.9741 77.5487 10.7309C77.1318 1.52796 72.1828 0.336643 71.9694 0.287005L71.9346 0.277078C70.8029 0.0983805 69.4726 -0.00585938 67.9785 -0.00585938C64.9307 -0.00585938 62.2304 0.396209 62.0467 0.425992C58.8451 0.877698 58.1948 5.17139 58.0608 7.04771C57.0681 7.07749 55.5243 7.11224 55.286 7.11224H55.2314C53.4048 7.27108 52.546 8.26384 52.3524 8.53685C50.9775 10.1799 51.6079 12.2696 51.6376 12.3639L51.6476 12.3937C52.0447 13.5304 52.819 14.6721 53.9409 15.8088C53.1615 17.8341 52.7694 20.0976 52.7694 22.5546C52.7694 26.9724 53.9855 31.0924 56.11 33.8622C58.5324 37.0043 62.2006 38.7416 66.4447 38.7416C70.6887 38.7416 74.357 37.0043 76.7793 33.8622C78.9336 31.0924 80.1597 26.9774 80.1597 22.5447C80.1597 22.1426 80.1398 21.7356 80.1249 21.3435C83.411 18.7524 83.2273 15.8287 83.2174 15.6599L83.2075 15.6053L83.2025 15.6103ZM72.6544 30.5017C71.3539 32.5964 69.145 33.748 66.4348 33.748C63.7245 33.748 61.5404 32.5964 60.2598 30.5017C59.138 28.6998 58.4678 25.7364 58.4678 22.5745C58.4678 21.4676 58.5622 20.4252 58.726 19.4523C59.1429 19.7054 59.5797 19.9586 60.0265 20.2018C63.4068 22.0682 66.4794 23.2049 66.6085 23.2496L66.6283 23.2595C68.3458 23.8303 70.1576 24.1232 72.024 24.1232C73.0019 24.1232 73.8159 24.0388 74.4215 23.9544C74.2726 26.5902 73.6323 28.9629 72.6594 30.5017H72.6544ZM80.8943 17.9383C80.6511 18.3255 80.3384 18.7722 79.8916 19.2338C79.6385 19.4969 79.3506 19.76 79.018 20.0231C78.75 20.2365 78.4422 20.4549 78.1096 20.6634C77.6182 20.9712 77.0623 21.274 76.4219 21.5569C76.1142 21.686 75.8015 21.82 75.454 21.9491C75.3448 21.9888 75.2405 22.0334 75.1313 22.0731C75.0569 22.093 74.8335 22.1476 74.4811 22.2022C73.9351 22.2965 73.0862 22.4008 72.0488 22.4008C70.376 22.4008 68.7429 22.1377 67.2091 21.6314C67.0155 21.5569 64.0422 20.45 60.8753 18.6928C60.2796 18.3652 59.7138 18.0276 59.1777 17.7C58.8898 17.5213 58.6019 17.3327 58.3338 17.154C58.0459 16.9654 57.7679 16.7718 57.5098 16.5832C57.0383 16.2357 56.6015 15.8982 56.1994 15.5606C55.9313 15.3373 55.6782 15.099 55.4399 14.8756C55.1818 14.6225 54.9386 14.3792 54.7251 14.1261C54.0401 13.3567 53.5537 12.5972 53.2956 11.8576C53.2558 11.7186 52.9729 10.5273 53.6927 9.67852L53.7224 9.65867L53.7572 9.60407C53.8217 9.52961 54.2784 8.99352 55.3754 8.88928C56.7107 8.84957 58.7359 8.8049 58.9146 8.8049H59.7882V8.79497L59.7783 7.93127C59.7783 7.87666 59.8081 2.52568 62.3049 2.18814H62.3247C62.3545 2.18814 65.0449 1.77615 68.0083 1.77615C69.3932 1.77615 70.6192 1.87046 71.6467 2.03923C71.751 2.06901 72.6395 2.34698 73.5777 3.44895C74.5357 4.58566 75.6873 6.77966 75.861 10.8897C75.8709 11.123 75.8809 11.3662 75.8809 11.6144L75.9007 12.4037V12.4781H75.9653L76.7644 12.4682H76.7744C76.819 12.4682 76.9779 12.4682 77.2112 12.488C77.6678 12.5277 78.4174 12.637 79.1818 12.9497C80.5568 13.5205 81.3262 14.4686 81.5297 15.8485C81.5297 15.9726 81.5198 16.8512 80.9092 17.9482L80.8943 17.9383Z" fill="#FF8400"/>
<path d="M59.8431 9.52539L59.1631 9.5651C63.293 14.4247 68.3561 15.4373 68.3561 15.4373C69.2198 15.343 69.7757 14.4346 69.7757 14.4346C62.1612 12.5583 59.8382 9.52539 59.8382 9.52539H59.8431Z" fill="#FF8400"/>
<path d="M74.9229 14.3336C75.0917 14.4925 75.4441 14.5123 75.4441 14.5123C76.4865 14.145 76.566 12.8892 76.566 12.8892C76.3227 12.8594 76.0249 12.8594 76.0249 12.8594C75.8214 13.8521 74.918 14.3336 74.918 14.3336H74.9229Z" fill="#FF8400"/>
<path d="M71.0956 2.58251C69.1001 2.11094 63.501 2.65696 63.501 2.65696C71.5821 3.63483 72.3316 7.0946 72.3316 7.0946C73.0116 4.2156 71.0956 2.58251 71.0956 2.58251Z" fill="#FF8400"/>
<path d="M227.109 32.9542C231.834 32.9542 235.676 29.5044 235.676 25.2553C235.676 21.0063 231.829 17.5664 227.109 17.5664H215.181L215.201 46.3118L219.122 46.3019L219.112 35.1631L231.968 46.292L237.816 46.282L222.453 32.9542H227.114H227.109ZM219.102 29.1569V21.3786H227.109C229.67 21.3786 231.76 23.111 231.76 25.2653C231.76 27.4196 229.675 29.1619 227.109 29.1619H219.102V29.1569Z" fill="#727171"/>
<path d="M207.342 37.0689C207.342 40.3202 204.141 42.9708 200.214 42.9708C196.288 42.9708 193.086 40.3301 193.086 37.0689V17.5859H189.165V37.0589C189.165 42.4149 194.124 46.7632 200.214 46.7632C206.305 46.7632 211.264 42.4149 211.264 37.0589V17.5859H207.342V37.0689Z" fill="#727171"/>
<path d="M128.706 29.205C126.631 28.9122 122.327 27.6166 122.307 25.4276C122.307 22.4245 125.171 20.8509 128.006 20.8509C130.84 20.8509 133.704 22.4195 133.704 25.4276V25.7204H137.626V25.4276C137.626 20.6524 133.491 17.0586 128.006 17.0586C122.521 17.0586 118.396 20.6623 118.396 25.4474C118.44 30.3666 124.605 32.501 128.249 32.9825C128.313 32.9924 134.235 33.6625 134.508 37.7874C134.479 41.2125 131.222 42.9994 128.016 42.9994C124.809 42.9994 121.523 41.1926 121.523 37.7527V37.4598H117.602V37.7527C117.602 42.92 122.074 46.8017 128.016 46.8017C133.957 46.8017 138.43 42.9051 138.43 37.7428V37.6435C138.082 31.6869 131.917 29.5277 128.711 29.21L128.706 29.205Z" fill="#727171"/>
<path d="M145.712 32.933H158.44V29.1307H145.712V21.3971H159.179L160.852 17.5898H141.796V46.3104H161.626V42.5032H145.712V32.933Z" fill="#727171"/>
<path d="M242.959 42.5032V32.933H255.681V29.1307H242.959V21.3971H256.535L258.098 17.5898H239.037V46.3104H258.872V42.5032H242.959Z" fill="#727171"/>
<path d="M167.587 25.4925C168.327 22.8319 171.246 20.901 174.532 20.901C177.421 20.901 180.007 22.3355 181.119 24.5494L181.149 24.604H185.293L185.264 24.4849C184.038 20.1366 179.63 17.0938 174.542 17.0938C168.441 17.0938 163.482 21.452 163.482 26.798V37.0731C163.482 42.429 168.441 46.7773 174.542 46.7773C179.352 46.7773 183.581 44.072 185.06 40.0514L185.105 39.9322H180.747L180.717 39.967C179.436 41.8185 177.068 42.9701 174.542 42.9701C171.256 42.9701 168.327 41.0342 167.602 38.3785C167.473 37.907 167.414 37.4801 167.414 37.0731V26.798C167.404 26.391 167.468 25.9541 167.592 25.4925H167.587Z" fill="#727171"/>
</g>
<defs>
<clipPath id="clip0_5460_2795">
<rect width="258.872" height="48" fill="white"/>
</clipPath>
</defs>
</svg>
