<svg width="16" height="20" viewBox="0 0 16 20" fill="none" xmlns="http://www.w3.org/2000/svg">
<path d="M7.93297 6.98099L6.27897 8.46499C6.49761 9.21335 6.80301 9.93358 7.18897 10.611C7.59154 11.2835 8.07664 11.9029 8.63297 12.455L10.775 11.795C11.975 11.425 13.285 11.805 14.083 12.755L15.303 14.207C15.7969 14.7899 16.0445 15.5422 15.9934 16.3045C15.9423 17.0668 15.5964 17.7793 15.029 18.291C13.039 20.107 9.97497 20.721 7.68097 18.919C5.6639 17.3325 3.95784 15.3864 2.64896 13.179C1.33676 10.9825 0.458208 8.55459 0.0609646 6.02699C-0.379035 3.18299 1.70297 0.906991 4.29897 0.130991C5.84697 -0.333009 7.49896 0.462991 8.06697 1.94699L8.73697 3.69699C9.17697 4.84899 8.86097 6.14899 7.93297 6.98099Z" fill="#FF8400"/>
</svg>
