<svg width="35" height="36" viewBox="0 0 35 36" fill="none" xmlns="http://www.w3.org/2000/svg">
<g clip-path="url(#clip0_537_16)">
<path d="M17.2503 0L0 6.53188C0 6.53188 0.0551811 6.51689 0.0551811 16.3971C0.0551811 32.7865 17.2497 36 17.2497 36C17.2497 36 34.4443 32.7865 34.4443 16.3971C34.4443 6.51689 34.4994 6.53188 34.4994 6.53188L17.2503 0ZM33.5946 16.4715C33.5946 32.0466 17.2576 35.0957 17.2576 35.0957C17.2576 35.0957 0.921186 32.0316 0.921186 16.4715C0.921186 7.12972 0.866005 7.10696 0.866005 7.10696L17.2576 0.912032L33.6492 7.10752C33.6492 7.10752 33.594 7.70536 33.594 16.4721L33.5946 16.4715Z" fill="#FF8400"/>
<path d="M15.9895 26.4883H14.2046V27.1766H15.9895V26.4883Z" fill="#FF8400"/>
<path d="M10.0825 24.5937C10.0825 24.2157 9.81446 24.0037 9.47324 24.0037C9.13202 24.0037 8.86963 24.2157 8.86963 24.5937C8.86963 24.9718 9.13765 25.1788 9.47324 25.1788C9.80883 25.1788 10.0825 24.9612 10.0825 24.5937Z" fill="#FF8400"/>
<path d="M1.68481 7.61144V8.27645C1.70058 9.34503 1.71635 11.6398 1.71635 16.4748C1.71635 19.8753 2.54294 22.9245 4.1415 25.5401C5.42474 27.6401 7.2277 29.4564 9.49519 30.9734C12.9513 33.2904 16.4784 34.157 17.2504 34.3218C18.0218 34.1575 21.5489 33.2904 25.0056 30.9734C27.2731 29.4564 29.076 27.6401 30.3593 25.5401C31.973 22.9245 32.7844 19.8753 32.7844 16.4748C32.7844 11.647 32.8002 9.34503 32.8002 8.27645C32.8002 8.00723 32.8002 7.79074 32.816 7.61144L17.2498 1.7146L1.68481 7.61144ZM8.18717 24.5937C8.18717 23.8998 8.74912 23.403 9.47379 23.403C10.1985 23.403 10.7655 23.8998 10.7655 24.5937C10.7655 25.2875 10.2035 25.7788 9.47379 25.7788C8.74405 25.7788 8.18717 25.277 8.18717 24.5937ZM12.0515 27.6889H8.82795V26.1413H9.52616V27.1405H12.0515V27.6889ZM12.5031 24.9972H11.8837V26.4932H11.1799V23.1082H11.8837V24.4332H12.5031V24.9972ZM12.7188 25.1216C13.5167 24.8834 13.837 24.2884 13.837 23.7238V23.2786H14.551V23.7238C14.551 24.2778 14.8714 24.8213 15.6484 25.0488L15.3123 25.5817C14.7768 25.4263 14.4142 25.1105 14.2047 24.7019C13.9896 25.1421 13.6169 25.494 13.0549 25.6595L12.7188 25.121V25.1216ZM16.6721 27.72H13.5217V25.9498H16.6721V27.72ZM16.6721 25.7427H15.9739V23.1132H16.6721V25.7427ZM21.6131 26.229H19.8124V27.7766H19.1142V26.229H17.3393V25.675H21.6131V26.229ZM17.7172 23.8892V23.3458H21.2296V23.8892H19.8906C19.9695 24.3189 20.4469 24.7641 21.4132 24.8779L21.1609 25.4213C20.3315 25.3125 19.7589 24.9656 19.4756 24.4998C19.1975 24.9656 18.6248 25.3125 17.7954 25.4213L17.5432 24.8779C18.5094 24.7641 18.9869 24.3189 19.0657 23.8892H17.7166H17.7172ZM24.9318 23.1127H25.6357V24.909H26.313V25.4785H25.6357V27.7716H24.9318V23.1132V23.1127ZM24.5799 23.8631V24.4066H23.6452V24.5565C23.6452 25.2087 23.9656 25.9542 24.7111 26.3062L24.3383 26.8291C23.8395 26.6015 23.4982 26.1718 23.304 25.6645C23.1046 26.2129 22.742 26.6792 22.2122 26.9118L21.8394 26.3839C22.6114 26.0319 22.9526 25.2454 22.9526 24.5565V24.4066H21.9971V23.8631H22.9526V23.2159H23.6458V23.8631H24.5805H24.5799ZM23.4819 11.742C23.483 11.8086 23.4836 11.8746 23.4836 11.9418C23.4836 16.2089 20.9312 18.7773 17.2493 20.4659C13.5679 18.7773 11.0149 16.2089 11.0149 11.9418C11.0149 11.8752 11.0155 11.8086 11.0166 11.742C11.1658 3.77125 23.3321 3.77125 23.4813 11.742H23.4819Z" fill="#FF8400"/>
<path d="M12.5688 12.0074C12.5688 14.5559 14.6646 16.6219 17.2497 16.6219C19.8347 16.6219 21.9305 14.5559 21.9305 12.0074C21.9305 9.45891 19.8347 7.39282 17.2497 7.39282C14.6646 7.39282 12.5688 9.45891 12.5688 12.0074ZM17.2497 8.71452C19.0915 8.71452 20.5898 10.1916 20.5898 12.0074H20.1394C20.1394 10.4364 18.8432 9.1586 17.2497 9.1586V8.71452ZM17.2497 10.1667C18.279 10.1667 19.1168 10.9927 19.1168 12.0074H18.6664C18.6664 11.2375 18.0306 10.6107 17.2497 10.6107V10.1667ZM18.1286 12.8856C18.2829 12.8856 19.6743 13.4951 19.6743 13.6472C19.6743 14.2567 19.2108 14.7135 18.7469 14.8662C18.2835 15.0183 17.9743 15.0183 17.3561 14.8662C16.7378 14.7141 16.2744 14.5614 15.5019 13.7998C14.7294 13.0382 14.5745 12.5808 14.4202 11.9719C14.2659 11.3624 14.2659 11.0576 14.4202 10.6008C14.5745 10.1439 15.0385 9.6865 15.6567 9.6865C15.811 9.6865 16.4293 11.0576 16.4293 11.2103C16.4293 11.515 15.9659 11.8198 15.811 12.1245C15.6567 12.4293 15.9653 12.734 16.2744 13.0388C16.396 13.1587 16.8927 13.6483 17.2018 13.4956C17.5109 13.3435 17.8201 12.8861 18.1292 12.8861L18.1286 12.8856Z" fill="#FF8400"/>
</g>
<defs>
<clipPath id="clip0_537_16">
<rect width="34.5" height="36" fill="white"/>
</clipPath>
</defs>
</svg>
