<svg width="78" height="16" viewBox="0 0 78 16" fill="none" xmlns="http://www.w3.org/2000/svg">
<g clip-path="url(#clip0_3902_2634)">
<path d="M25.8775 13.5211H18.251V11.8603H25.8775V13.5211ZM22.0697 3.65991L25.8333 9.72657L24.4316 10.6723L22.0918 6.91238L19.741 10.6723L18.2951 9.72657L22.0697 3.65991Z" fill="#202B45"/>
<path d="M31.2539 10.7069H26.519V4.0636H31.2539V10.7069ZM29.4438 9.0461V5.72443H28.3291V9.0461H29.4438ZM33.8475 4.0636V5.6091H34.6863V7.26993H33.8475V14.2477H32.0375V4.0636H33.8475Z" fill="#202B45"/>
<path d="M42.3568 13.5442H35.1387V11.8949H42.3568V13.5442ZM35.5691 4.02905H41.9263V5.67835H37.3681V6.4857H41.9263V8.14654H37.3681V8.94235H41.9263V10.5917H35.5691V4.02905Z" fill="#202B45"/>
<path d="M49.6977 7.63908C49.5583 7.97788 49.3707 8.2691 49.1348 8.51563C48.8989 8.76216 48.6216 8.95535 48.3015 9.09808C47.9814 9.24081 47.6407 9.31145 47.2806 9.31145C46.9205 9.31145 46.5687 9.24081 46.2486 9.09808C45.9286 8.95535 45.6513 8.76216 45.4154 8.51563C45.1794 8.2691 44.9946 7.97788 44.858 7.63908C44.7214 7.30028 44.6538 6.93986 44.6538 6.55493C44.6538 6.16999 44.7214 5.82399 44.858 5.49384C44.9946 5.16369 45.1794 4.87103 45.4154 4.61729C45.6513 4.37076 45.9286 4.17469 46.2486 4.02907C46.5687 3.88346 46.9122 3.80994 47.2806 3.80994C47.6489 3.80994 47.9814 3.88346 48.3015 4.02907C48.6216 4.17469 48.8989 4.37076 49.1348 4.61729C49.3707 4.87103 49.5583 5.16369 49.6977 5.49384C49.837 5.82399 49.9074 6.17864 49.9074 6.55493C49.9074 6.93121 49.837 7.30028 49.6977 7.63908ZM47.9649 10.4879V12.5985H52.4127V14.2594H46.1659V10.4879H47.9649ZM47.9042 5.92635C47.7234 5.73748 47.5124 5.64377 47.2695 5.64377C47.0267 5.64377 46.8019 5.73748 46.6184 5.92635C46.4349 6.11521 46.3424 6.34011 46.3424 6.60106C46.3424 6.86201 46.4349 7.07394 46.6184 7.25847C46.8019 7.44301 47.0198 7.53528 47.2695 7.53528C47.5193 7.53528 47.7234 7.44301 47.9042 7.25847C48.0849 7.07394 48.1746 6.8548 48.1746 6.60106C48.1746 6.34732 48.0849 6.11521 47.9042 5.92635ZM50.5144 4.07521H52.3134V5.40157H53.1522V7.0624H52.3134V11.3875H50.5144V4.07521Z" fill="#202B45"/>
<path d="M57.5781 9.49597L55.8674 6.88938L54.1898 9.49597L52.7881 8.51562L55.8674 3.71765L58.9908 8.52715L57.5781 9.49597ZM60.834 14.2478H54.4657V9.91118H60.834V14.2478ZM56.2757 11.5605V12.587H59.035V11.5605H56.2757ZM59.035 9.4729V4.05212H60.834V9.4729H59.035Z" fill="#202B45"/>
<path d="M62.0034 9.84192V4.0636H63.8024V5.19389H64.9723V4.0636H66.7824V9.84192H62.0034ZM64.7406 12.5869H69.1995V14.2477H62.9416V10.7069H64.7406V12.5869ZM64.9723 8.19262V6.85472H63.8024V8.19262H64.9723ZM66.4071 7.37373V5.72443H67.2901V4.0636H69.0891V11.3644H67.2901V7.37373H66.4071Z" fill="#202B45"/>
<path d="M74.6712 11.895H77.4304V13.5327H70.0137V11.895H72.7619V10.2572H74.6712V11.895ZM70.5545 6.11665V4.45581H72.7619V3.78687H74.6823V4.45581H76.9007V6.11665H76.106C76.2385 6.34732 76.3433 6.59529 76.4206 6.86056C76.4978 7.12583 76.5365 7.40408 76.5365 7.69675C76.5365 8.10475 76.4606 8.4868 76.3102 8.84434C76.1598 9.20188 75.9584 9.51184 75.7087 9.77279C75.459 10.0337 75.1513 10.2514 74.8092 10.4014C74.467 10.5513 74.1042 10.6263 73.7221 10.6263C73.3399 10.6263 72.966 10.5513 72.6239 10.4014C72.2817 10.2514 71.9824 10.0424 71.7244 9.77279C71.4747 9.51184 71.276 9.20188 71.1284 8.84434C70.9808 8.4868 70.9077 8.10475 70.9077 7.69675C70.9077 7.40408 70.9421 7.12583 71.0125 6.86056C71.0829 6.59529 71.1905 6.34732 71.3381 6.11665H70.5545ZM72.944 8.49833C73.1537 8.71747 73.413 8.82704 73.7221 8.82704C74.0311 8.82704 74.2725 8.71747 74.4891 8.49833C74.7057 8.27919 74.8147 8.01248 74.8147 7.69675C74.8147 7.38101 74.7057 7.10998 74.4891 6.88363C74.2725 6.65728 74.0159 6.54339 73.7221 6.54339C73.413 6.54339 73.1537 6.65728 72.944 6.88363C72.7343 7.10998 72.6294 7.38101 72.6294 7.69675C72.6294 8.01248 72.7343 8.27919 72.944 8.49833Z" fill="#202B45"/>
</g>
<g clip-path="url(#clip1_3902_2634)">
<path d="M7.88593 0.568481L0.584961 3.33302C0.584961 3.33302 0.608316 3.32668 0.608316 7.50838C0.608316 14.445 7.8857 15.805 7.8857 15.805C7.8857 15.805 15.1631 14.445 15.1631 7.50838C15.1631 3.32668 15.1864 3.33302 15.1864 3.33302L7.88593 0.568481ZM14.8035 7.53986C14.8035 14.1318 7.88903 15.4223 7.88903 15.4223C7.88903 15.4223 0.974842 14.1255 0.974842 7.53986C0.974842 3.58605 0.951487 3.57642 0.951487 3.57642L7.88903 0.954488L14.8266 3.57665C14.8266 3.57665 14.8032 3.82968 14.8032 7.54009L14.8035 7.53986Z" fill="#FF8400"/>
<path d="M7.35262 11.7794H6.59717V12.0707H7.35262V11.7794Z" fill="#FF8400"/>
<path d="M4.85219 10.9775C4.85219 10.8175 4.73876 10.7278 4.59434 10.7278C4.44992 10.7278 4.33887 10.8175 4.33887 10.9775C4.33887 11.1375 4.4523 11.2252 4.59434 11.2252C4.73637 11.2252 4.85219 11.1331 4.85219 10.9775Z" fill="#FF8400"/>
<path d="M1.29834 3.78996V4.07142C1.30501 4.52368 1.31169 5.49492 1.31169 7.54125C1.31169 8.98049 1.66153 10.271 2.3381 11.3781C2.88122 12.2668 3.6443 13.0356 4.60399 13.6776C6.06676 14.6583 7.55955 15.025 7.88628 15.0948C8.21277 15.0253 9.70556 14.6583 11.1686 13.6776C12.1283 13.0356 12.8913 12.2668 13.4345 11.3781C14.1175 10.271 14.4609 8.98049 14.4609 7.54125C14.4609 5.49797 14.4675 4.52368 14.4675 4.07142C14.4675 3.95747 14.4675 3.86584 14.4742 3.78996L7.88604 1.29419L1.29834 3.78996ZM4.05038 10.9775C4.05038 10.6838 4.28822 10.4735 4.59493 10.4735C4.90164 10.4735 5.14162 10.6838 5.14162 10.9775C5.14162 11.2712 4.90379 11.4791 4.59493 11.4791C4.28608 11.4791 4.05038 11.2667 4.05038 10.9775ZM5.68593 12.2875H4.32159V11.6325H4.61709V12.0554H5.68593V12.2875ZM5.87706 11.1483H5.61491V11.7814H5.31702V10.3488H5.61491V10.9096H5.87706V11.1483ZM5.96833 11.2009C6.30602 11.1001 6.44162 10.8483 6.44162 10.6093V10.4209H6.7438V10.6093C6.7438 10.8438 6.8794 11.0738 7.20828 11.1701L7.066 11.3957C6.83937 11.3299 6.68589 11.1962 6.59724 11.0233C6.50621 11.2096 6.34844 11.3586 6.11061 11.4286L5.96833 11.2007V11.2009ZM7.64153 12.3007H6.30817V11.5514H7.64153V12.3007ZM7.64153 11.4638H7.34602V10.3509H7.64153V11.4638ZM9.73273 11.6696H8.97061V12.3246H8.6751V11.6696H7.92393V11.4351H9.73273V11.6696ZM8.08384 10.6793V10.4493H9.57044V10.6793H9.00373C9.0371 10.8612 9.23919 11.0496 9.64813 11.0978L9.54137 11.3278C9.19033 11.2817 8.94797 11.1349 8.82809 10.9378C8.71037 11.1349 8.468 11.2817 8.11697 11.3278L8.0102 11.0978C8.41915 11.0496 8.62124 10.8612 8.6546 10.6793H8.0836H8.08384ZM11.1374 10.3507H11.4352V11.1109H11.7219V11.352H11.4352V12.3225H11.1374V10.3509V10.3507ZM10.9884 10.6683V10.8983H10.5928V10.9617C10.5928 11.2378 10.7284 11.5533 11.0439 11.7023L10.8862 11.9236C10.675 11.8273 10.5306 11.6454 10.4484 11.4307C10.364 11.6628 10.2106 11.8601 9.9863 11.9586L9.82853 11.7352C10.1553 11.5862 10.2997 11.2533 10.2997 10.9617V10.8983H9.89526V10.6683H10.2997V10.3944H10.593V10.6683H10.9886H10.9884ZM10.5237 5.53815C10.5242 5.56634 10.5244 5.5943 10.5244 5.62273C10.5244 7.42871 9.44413 8.51578 7.8858 9.23046C6.32771 8.51578 5.2472 7.42871 5.2472 5.62273C5.2472 5.59453 5.24743 5.56634 5.24791 5.53815C5.31106 2.16464 10.4603 2.16464 10.5235 5.53815H10.5237Z" fill="#FF8400"/>
<path d="M5.90479 5.65044C5.90479 6.72905 6.79179 7.6035 7.88589 7.6035C8.97998 7.6035 9.86699 6.72905 9.86699 5.65044C9.86699 4.57183 8.97998 3.69739 7.88589 3.69739C6.79179 3.69739 5.90479 4.57183 5.90479 5.65044ZM7.88589 4.25678C8.66541 4.25678 9.29956 4.88196 9.29956 5.65044H9.10891C9.10891 4.98556 8.56031 4.44473 7.88589 4.44473V4.25678ZM7.88589 4.87138C8.32152 4.87138 8.67613 5.22097 8.67613 5.65044H8.48548C8.48548 5.32458 8.21643 5.05934 7.88589 5.05934V4.87138ZM8.25789 6.02212C8.32319 6.02212 8.91206 6.28008 8.91206 6.34446C8.91206 6.60242 8.71593 6.79578 8.51956 6.86039C8.32343 6.92476 8.19259 6.92476 7.93093 6.86039C7.66926 6.79601 7.47313 6.7314 7.14616 6.40907C6.81919 6.08673 6.75366 5.89314 6.68836 5.63541C6.62306 5.37744 6.62306 5.24846 6.68836 5.05511C6.75366 4.86175 6.95003 4.66816 7.2117 4.66816C7.27699 4.66816 7.53866 5.24846 7.53866 5.31307C7.53866 5.44205 7.34253 5.57104 7.27699 5.70002C7.2117 5.829 7.34229 5.95798 7.47313 6.08696C7.5246 6.13771 7.73479 6.34493 7.86563 6.28032C7.99646 6.21595 8.1273 6.02235 8.25813 6.02235L8.25789 6.02212Z" fill="#FF8400"/>
</g>
<defs>
<clipPath id="clip0_3902_2634">
<rect width="59.1797" height="10.5994" fill="white" transform="translate(18.251 3.65991)"/>
</clipPath>
<clipPath id="clip1_3902_2634">
<rect width="14.6017" height="15.2366" fill="white" transform="translate(0.584961 0.568481)"/>
</clipPath>
</defs>
</svg>
